<svg height="496pt" viewBox="0 0 496 496" width="496pt" xmlns="http://www.w3.org/2000/svg"><path d="m482.34375 104.96875c8.679688-8.679688 13.65625-20.695312 13.65625-32.96875s-4.976562-24.289062-13.65625-32.96875l-25.375-25.375c-8.679688-8.679688-20.695312-13.65625-32.96875-13.65625s-24.289062 4.976562-32.96875 13.65625l-333.757812 333.757812-57.273438 130.914063v17.671875h320c13.230469 0 24-10.769531 24-24s-10.769531-24-24-24h-56c-4.414062 0-8-3.585938-8-8s3.585938-8 8-8h184v-16h-184c-13.230469 0-24 10.769531-24 24s10.769531 24 24 24h56c4.414062 0 8 3.585938 8 8s-3.585938 8-8 8h-265.753906l94.347656-41.273438zm-89.65625 67.03125-12.6875 12.6875-68.6875-68.6875 12.6875-12.6875zm-57.375-80 12.6875-12.6875 68.6875 68.6875-12.6875 12.6875zm-18.625 52-224.6875 224.6875-16.6875-16.6875 224.6875-224.6875zm11.3125 11.3125 12.6875 12.6875-224.6875 224.6875-12.6875-12.6875zm24 24 16.6875 16.6875-224.6875 224.6875-16.6875-16.6875zm50.34375-154.34375c5.703125-5.703125 13.59375-8.96875 21.65625-8.96875s15.953125 3.265625 21.65625 8.96875l25.375 25.375c5.703125 5.703125 8.96875 13.59375 8.96875 21.65625s-3.265625 15.953125-8.96875 21.65625l-43.03125 43.03125-68.6875-68.6875zm-335.710938 340.976562 63.421876 63.421876-62.175782 27.199218-28.445312-28.445312zm-34.089843 77.910157 19.59375 19.59375-34.839844 15.238281zm0 0"/></svg>