<svg height="496pt" viewBox="-40 0 496 496" width="496pt" xmlns="http://www.w3.org/2000/svg"><path d="m129.984375 96.007812 3.40625 4.367188 1.578125 1.898438zm0 0"/><path d="m200.441406 78.265625v-16c-20.5625 0-40.875 5.382813-58.753906 15.574219l7.921875 13.894531c15.46875-8.804687 33.039063-13.46875 50.832031-13.46875zm0 0"/><path d="m370.984375 344.441406-114.984375-23v-14.433594c24.425781-14.175781 41.984375-38.769531 46.65625-67.6875 18.878906-3.183593 33.34375-19.542968 33.34375-39.320312v-87.015625c0-21.824219-13.96875-40.921875-34.40625-47.6875l-.378906-.746094c-19.902344-39.816406-59.917969-64.550781-104.4375-64.550781-64.394532 0-116.777344 52.382812-116.777344 116.777344v83.222656c0 19.777344 14.464844 36.136719 33.34375 39.328125 4.671875 28.910156 22.242188 53.503906 46.65625 67.6875v14.433594l-114.984375 23c-26.085937 5.207031-45.015625 28.304687-45.015625 54.902343v96.648438h416v-96.648438c0-26.597656-18.929688-49.695312-45.015625-54.910156zm-108.015625-5.289062-11.976562 47.894531-30.441407-20.285156 30.074219-30.074219zm-72.257812 119.519531 37.335937 12.449219 1.976563 8.878906h-44.046876zm3.496093-15.703125 4.207031-18.96875h19.160157l6.425781 28.902344zm23.546875-34.96875h-19.507812l-5.117188-20.472656 14.871094-9.910156 14.871094 9.917968zm86.246094-185.472656v-45.046875c9.289062 3.3125 16 12.113281 16 22.527343 0 10.417969-6.710938 19.207032-16 22.519532zm-208-22.527344c0-10.425781 6.71875-19.222656 16.023438-22.535156l-.023438 45.0625c-9.289062-3.3125-16-12.113282-16-22.527344zm16-83.550781v1.664062c0 .628907.015625 1.261719.054688 1.886719l-.023438 40.808594c-5.960938 1.207031-11.351562 3.855468-16.03125 7.398437v-51.429687c0-55.570313 45.199219-100.777344 100.777344-100.777344 38.421875 0 72.949218 21.34375 90.132812 55.710938l3.585938 7.160156 3.566406.898437c15.273438 3.816407 25.9375 17.46875 25.9375 33.214844v55.222656c-4.671875-3.535156-10.054688-6.183593-16-7.390625v-8.816406c0-12.039062-3.976562-23.976562-11.199219-33.601562-10.519531-14.023438-27.273437-22.398438-44.800781-22.398438-11.695312 0-23.414062 2.769531-33.886719 8l-60.21875 30.113281c-2.46875 1.230469-5.230469 1.886719-8 1.886719-9.871093 0-17.894531-8.023438-17.894531-17.886719v-1.664062c0-5.464844 2.449219-10.554688 6.902344-14.128907l-1.519532-1.945312-8.671874-10.390625c-8.078126 6.464844-12.710938 16.113281-12.710938 26.464844zm16 107.550781v-77.121094c9.34375 5.832032 22.496094 6.816406 33.046875 1.546875l60.21875-30.113281c8.261719-4.128906 17.511719-6.3125 26.734375-6.3125 12.519531 0 24.488281 5.984375 32 16 5.160156 6.871094 8 15.398438 8 24v72c0 44.113281-35.886719 80-80 80s-80-35.886719-80-80zm80 96c11.230469 0 21.976562-2.039062 32-5.601562v10.289062l-32 32-32-32v-10.289062c10.023438 3.5625 20.769531 5.601562 32 5.601562zm-42.632812 16.6875 30.074218 30.074219-30.441406 20.285156-11.976562-47.894531zm-149.367188 62.664062c0-19 13.519531-35.503906 32.160156-39.222656l89.175782-17.832031 17.664062 70.664063 24-16 4.785156 19.152343-14.199218 63.886719h-73.585938v-80h-16v80h-64zm384 80.648438h-64v-80h-16v80h-73.585938l-14.199218-63.894531 4.785156-19.152344 24 16 17.664062-70.664063 89.175782 17.832032c18.640625 3.726562 32.160156 20.230468 32.160156 39.230468zm0 0"/><path d="m264 176c0 4.417969-3.582031 8-8 8s-8-3.582031-8-8 3.582031-8 8-8 8 3.582031 8 8zm0 0"/><path d="m168 176c0 4.417969-3.582031 8-8 8s-8-3.582031-8-8 3.582031-8 8-8 8 3.582031 8 8zm0 0"/><path d="m248 232h-16c0 13.230469-10.769531 24-24 24s-24-10.769531-24-24h-16c0 22.054688 17.945312 40 40 40s40-17.945312 40-40zm0 0"/><path d="m64 248h16v16h-16zm0 0"/><path d="m48 264h16v16h-16zm0 0"/><path d="m64 280h16v16h-16zm0 0"/><path d="m80 264h16v16h-16zm0 0"/><path d="m376 256h16v16h-16zm0 0"/><path d="m360 272h16v16h-16zm0 0"/><path d="m376 288h16v16h-16zm0 0"/><path d="m392 272h16v16h-16zm0 0"/><path d="m368 0h16v16h-16zm0 0"/><path d="m352 16h16v16h-16zm0 0"/><path d="m368 32h16v16h-16zm0 0"/><path d="m384 16h16v16h-16zm0 0"/><path d="m24 32h16v16h-16zm0 0"/><path d="m8 48h16v16h-16zm0 0"/><path d="m24 64h16v16h-16zm0 0"/><path d="m40 48h16v16h-16zm0 0"/></svg>