<svg id="_x33_0" enable-background="new 0 0 64 64" height="512" viewBox="0 0 64 64" width="512" xmlns="http://www.w3.org/2000/svg"><g><circle cx="28" cy="20" r="1"/><circle cx="36" cy="20" r="1"/><path d="m33 25h-4v2h4c2.206 0 4-1.794 4-4h-2c0 1.103-.897 2-2 2z"/><path d="m61 21h-2c-1.103 0-2 .897-2 2v4h-2.184c-.414-1.161-1.514-2-2.816-2h-4c-1.302 0-2.402.839-2.816 2h-4.869c.297-.622.504-1.294.605-2h.08c2.206 0 4-1.794 4-4 0-.701-.197-1.351-.516-1.925l2.095-4.888c.279-.65.421-1.339.421-2.049 0-3.532-1.918-6.792-5.006-8.507-3.097-1.721-6.607-2.631-10.151-2.631h-1.296c-3.129 0-6.263.74-9.062 2.139l-.118.059c-2.693 1.347-4.367 4.055-4.367 7.067 0 .68.199 1.338.576 1.902l1.005 1.507-.953 1.191c-.405.506-.628 1.142-.628 1.79 0 1.236.788 2.329 1.96 2.719l.341.114c-.191.467-.301.977-.301 1.512 0 2.206 1.794 4 4 4h.08c.102.706.308 1.378.605 2h-4.869c-.414-1.161-1.514-2-2.816-2h-4c-1.302 0-2.402.839-2.816 2h-2.184v-4c0-1.103-.897-2-2-2h-2c-1.103 0-2 .897-2 2v14c0 1.103.897 2 2 2h2c1.103 0 2-.897 2-2v-4h1.753l-1.247 5.614c-.336 1.511-.506 3.062-.506 4.608 0 3.281.775 6.565 2.242 9.5l.388.774c1.081 2.161 3.253 3.504 5.67 3.504 2.016 0 3.882-.978 5.062-2.542l1.492 6.961c.195.916 1.018 1.581 1.955 1.581h16.383c.937 0 1.76-.665 1.955-1.581l1.492-6.961c1.179 1.564 3.045 2.542 5.061 2.542 2.417 0 4.589-1.343 5.67-3.504l.388-.775c1.467-2.934 2.242-6.219 2.242-9.5 0-1.546-.17-3.096-.506-4.607l-1.247-5.614h1.753v4c0 1.103.897 2 2 2h2c1.103 0 2-.897 2-2v-14c0-1.103-.897-2-2-2zm-14 7c0-.551.448-1 1-1h4c.552 0 1 .449 1 1v2c0 .551-.448 1-1 1h-4c-.552 0-1-.449-1-1zm-5.109 6.407c-.308-.219-.648-.377-1.017-.47l-3.185-.796-.071-.141h9.382v5.057zm-5.891-.171v3.764c0 .551-.448 1-1 1h-6c-.552 0-1-.449-1-1v-3.764l1.627-3.255c.125.007.247.019.373.019h4c.126 0 .248-.012.373-.019zm-9.689-1.095-3.186.797c-.367.092-.708.25-1.015.469l-5.11 3.65v-5.057h9.382zm-7.311-4.141h6.111c.702.687 1.549 1.222 2.488 1.567l-.217.433h-8.566c.112-.314.184-.648.184-1zm15 0h-4c-2.757 0-5-2.243-5-5v-5.91c0-1.02.382-1.978 1.053-2.707.828.988 2.069 1.617 3.456 1.617.419 0 .835-.058 1.238-.173l6.172-1.764c1.022-.295 2.081.517 2.081 1.568v7.369c0 2.757-2.243 5-5 5zm4.889 0h6.111v1c0 .352.072.686.184 1h-8.566l-.217-.433c.94-.345 1.787-.88 2.488-1.567zm2.111-6v-4c1.103 0 2 .897 2 2s-.897 2-2 2zm-21.81-6.887 3.591-4.489-1.563-1.249-1.327 1.659-.652-.978c-.156-.234-.239-.508-.239-.791 0-2.25 1.25-4.271 3.262-5.277l.118-.059c2.522-1.262 5.347-1.929 8.167-1.929h1.296c3.205 0 6.379.823 9.181 2.379 2.453 1.363 3.976 3.953 3.976 6.759 0 .436-.087.86-.259 1.26l-1.774 4.14c-.583-.332-1.248-.538-1.967-.538v-.369c0-2.002-1.629-3.631-3.632-3.631-.336 0-.671.047-.997.14l-6.173 1.764c-.224.064-.456.096-.689.096-1.384 0-2.509-1.125-2.509-2.547 0-.66.268-1.307.734-1.774l1.973-1.972-1.414-1.414-1.974 1.973c-.85.852-1.319 1.984-1.319 3.225 0 .352.041.695.117 1.023-1.06.897-1.761 2.127-2.01 3.485h-.107c-.901 0-1.724.31-2.393.815l-1.015-.338c-.354-.118-.592-.448-.592-.821 0-.196.067-.388.19-.542zm1.81 4.887c0-1.103.897-2 2-2v4c-1.103 0-2-.897-2-2zm-10 7c0-.551.448-1 1-1h4c.552 0 1 .449 1 1v2c0 .551-.448 1-1 1h-4c-.552 0-1-.449-1-1zm-8 9v-14h2l.001 14zm4-8h2v1c0 .352.072.686.184 1h-2.184zm12.362 23.185c-.631 1.684-2.263 2.815-4.062 2.815-1.654 0-3.142-.919-3.881-2.399l-.388-.774c-1.329-2.658-2.031-5.634-2.031-8.605 0-1.4.154-2.804.459-4.174l1.344-6.048h4.197v17h2v-9.485l4.202-3.001-1.659 5.53c-.36 1.201-.543 2.446-.543 3.698 0 .907.097 1.815.286 2.697l.402 1.877zm20.829 8.815h-16.382l-2.567-11.98c-.161-.745-.242-1.512-.242-2.278 0-1.058.154-2.109.459-3.124l2.336-7.786 2.205-.551v2.719c0 1.654 1.346 3 3 3h6c1.654 0 3-1.346 3-3v-2.719l2.205.551 2.336 7.787c.305 1.014.459 2.066.459 3.123 0 .766-.081 1.533-.241 2.278zm14.35-21.952c.305 1.369.459 2.774.459 4.174 0 2.972-.702 5.947-2.031 8.604l-.388.775c-.739 1.48-2.227 2.399-3.881 2.399-1.799 0-3.432-1.131-4.063-2.816l-.326-.868.402-1.876c.19-.883.287-1.791.287-2.698 0-1.252-.183-2.497-.543-3.698l-1.659-5.531 4.202 3.002v9.485h2v-17h4.197zm.275-8.048c.112-.314.184-.648.184-1v-1h2v2zm6.184 6h-2v-14h2z"/></g></svg>