<svg id="Layer_3" enable-background="new 0 0 64 64" height="512" viewBox="0 0 64 64" width="512" xmlns="http://www.w3.org/2000/svg"><path d="m11 39h10v-10h-10zm2-8h6v6h-6z"/><path d="m11 51h10v-10h-10zm2-8h6v6h-6z"/><path d="m22.36 17.232-1.36 1.133v-1.365h-10v10h10v-6.032l2.64-2.2zm-3.36 7.768h-6v-6h6v1.032l-1.938 1.615-1.354-1.354-1.414 1.414 2.646 2.646 2.06-1.718z"/><path d="m25 17h14v2h-14z"/><path d="m25 21h14v2h-14z"/><path d="m25 25h10v2h-10z"/><path d="m37 25h2v2h-2z"/><path d="m25 29h14v2h-14z"/><path d="m25 33h14v2h-14z"/><path d="m25 37h10v2h-10z"/><path d="m37 37h2v2h-2z"/><path d="m25 41h14v2h-14z"/><path d="m25 45h14v2h-14z"/><path d="m25 49h10v2h-10z"/><path d="m37 49h2v2h-2z"/><path d="m45 20h2c0-2.757 2.243-5 5-5v-2c-3.86 0-7 3.14-7 7z"/><path d="m45 52h2c0-2.757 2.243-5 5-5v-2c-3.86 0-7 3.14-7 7z"/><path d="m57 42.206v-12.412c3.666-1.872 6-5.646 6-9.794 0-6.065-4.935-11-11-11-1.204 0-2.36.201-3.445.561-1.002-2.7-3.593-4.561-6.555-4.561h-7.184c-.414-1.161-1.514-2-2.816-2h-1.171c-.413-1.164-1.525-2-2.829-2h-6c-1.304 0-2.416.836-2.829 2h-1.171c-1.302 0-2.402.839-2.816 2h-7.184c-3.86 0-7 3.14-7 7v44c0 3.86 3.14 7 7 7h34c1.62 0 3.149-.55 4.39-1.555 1.645.981 3.56 1.555 5.61 1.555 6.065 0 11-4.935 11-11 0-4.148-2.334-7.923-6-9.794zm-10.29-31.845c-.624.344-1.211.747-1.754 1.201-.215-1.446-1.452-2.562-2.956-2.562h-7v-2h7c2.152 0 4.023 1.378 4.71 3.361zm-1.71 18.088c.615.509 1.273.974 2 1.345v12.411c-.727.371-1.385.836-2 1.345zm-2-2.172v19.445c-1.263 1.809-2 3.979-2 6.277 0 1.79.439 3.477 1.201 4.972-.064.015-.127.029-.201.029h-34c-.551 0-1-.449-1-1v-44c0-.551.449-1 1-1h7.184c.414 1.161 1.514 2 2.816 2h14c1.302 0 2.402-.839 2.816-2h7.184c.551 0 1 .449 1 1v1.695c-1.256 1.787-2 3.959-2 6.305 0 2.299.737 4.468 2 6.277zm-26-20.277c0-.551.449-1 1-1h3v-1c0-.551.449-1 1-1h6c.551 0 1 .449 1 1v1h3c.551 0 1 .449 1 1v4c0 .551-.449 1-1 1h-14c-.551 0-1-.449-1-1zm25 55h-34c-2.757 0-5-2.243-5-5v-44c0-2.757 2.243-5 5-5h7v2h-7c-1.654 0-3 1.346-3 3v44c0 1.654 1.346 3 3 3h34c.454 0 .893-.108 1.294-.303.419.544.888 1.046 1.4 1.503-.798.515-1.722.8-2.694.8zm10 0c-4.962 0-9-4.038-9-9 0-3.575 2.12-6.812 5.4-8.246l.6-.262v-14.984l-.6-.262c-3.28-1.434-5.4-4.671-5.4-8.246 0-4.962 4.038-9 9-9s9 4.038 9 9c0 3.575-2.12 6.812-5.4 8.246l-.6.262v14.984l.6.262c3.28 1.434 5.4 4.671 5.4 8.246 0 4.962-4.038 9-9 9z"/></svg>