<?xml version="1.0" encoding="iso-8859-1"?>
<!-- Generator: Adobe Illustrator 16.0.0, SVG Export Plug-In . SVG Version: 6.00 Build 0)  -->
<!DOCTYPE svg PUBLIC "-//W3C//DTD SVG 1.1//EN" "http://www.w3.org/Graphics/SVG/1.1/DTD/svg11.dtd">
<svg version="1.1" id="Capa_1" xmlns="http://www.w3.org/2000/svg" xmlns:xlink="http://www.w3.org/1999/xlink" x="0px" y="0px"
	 width="591.737px" height="591.738px" viewBox="0 0 591.737 591.738" style="enable-background:new 0 0 591.737 591.738;"
	 xml:space="preserve">
<g>
	<g>
		<g>
			<path d="M533.097,143.131H413.036c-16.666-14.762-35.594-27.171-56.59-37.062c-30.13-14.194-64.74-23.255-103.167-27.036v-16.49
				c0-8.247-1.676-16.207-4.983-23.657c-3.156-7.111-7.646-13.419-13.346-18.75C224.08,9.971,209.904,4.373,195.033,4.373
				c-15.131,0-29.485,5.853-40.418,16.48L18.116,153.535c-5.729,5.568-10.176,12.128-13.217,19.495
				c-2.924,7.084-4.404,14.566-4.398,22.24c0.006,7.673,1.497,15.154,4.433,22.232c3.053,7.362,7.51,13.915,13.248,19.475
				l116.312,112.711v179.535c0,32.059,26.082,58.141,58.14,58.141h340.466c32.058,0,58.14-26.082,58.14-58.141V201.271
				C591.236,169.213,565.155,143.131,533.097,143.131z M47.976,184.254L184.474,51.572c3.097-3.011,6.865-4.36,10.558-4.36
				c7.872,0,15.406,6.124,15.406,15.331v42.265c0,8.236,6.521,15.002,14.751,15.287c44.565,1.543,80.435,10.091,109.306,23.036
				c25.521,11.442,45.571,26.32,61.313,42.84c40.75,42.763,52.646,96.518,55.897,130.089c0.927,9.572-6.798,16.764-15.263,16.764
				c-2.745,0-5.566-0.756-8.198-2.432c-34.053-21.697-103.047-56.103-201.972-59.483c-0.178-0.006-0.356-0.009-0.533-0.009
				c-8.415,0-15.303,6.822-15.303,15.303v41.294c0,9.205-7.534,15.33-15.405,15.33c-3.687,0-7.446-1.342-10.542-4.342l-7.159-6.938
				l-42.84-41.515l-86.499-83.821C41.796,200.208,41.788,190.269,47.976,184.254z M548.396,529.224c0,8.451-6.85,15.301-15.3,15.301
				H192.632c-8.45,0-15.3-6.85-15.3-15.301V382.882c5.663,1.824,11.617,2.787,17.701,2.787c14.873,0,29.049-5.6,39.919-15.768
				c5.699-5.33,10.188-11.639,13.344-18.746c3.306-7.451,4.983-15.41,4.983-23.656v-11.803
				c74.381,7.803,126.229,34.438,151.947,50.824c9.389,5.982,20.184,9.143,31.219,9.143c16.383,0,32.114-6.979,43.162-19.146
				c10.944-12.055,16.317-28.307,14.74-44.588c-3.279-33.872-13.67-81.691-43.713-125.959h82.464c8.449,0,15.3,6.85,15.3,15.3
				L548.396,529.224L548.396,529.224z"/>
			<path d="M533.098,587.865H192.632c-32.334,0-58.64-26.306-58.64-58.641V349.901L17.833,237.336
				c-5.787-5.607-10.282-12.216-13.362-19.643c-2.96-7.138-4.464-14.682-4.471-22.423c-0.005-7.74,1.487-15.287,4.437-22.431
				c3.068-7.432,7.553-14.047,13.331-19.663L154.266,20.495c11.027-10.719,25.505-16.622,40.767-16.622
				c14.999,0,29.296,5.646,40.258,15.898c5.75,5.377,10.279,11.74,13.462,18.913c3.335,7.514,5.026,15.542,5.026,23.859V78.58
				c38.273,3.81,72.884,12.905,102.88,27.037c20.888,9.84,39.917,22.292,56.566,37.015h119.871c32.334,0,58.64,26.306,58.641,58.64
				v327.953C591.737,561.559,565.432,587.865,533.098,587.865z M195.033,4.873c-15,0-29.23,5.803-40.07,16.339L18.464,153.894
				c-5.679,5.52-10.088,12.023-13.104,19.328c-2.898,7.022-4.366,14.44-4.36,22.048c0.006,7.609,1.485,15.025,4.395,22.042
				c3.027,7.3,7.446,13.795,13.134,19.308l116.463,112.858v179.747c0,31.783,25.857,57.641,57.64,57.641h340.466
				c31.782,0,57.64-25.857,57.64-57.641V201.271c-0.001-31.783-25.858-57.64-57.641-57.64h-120.25l-0.142-0.125
				c-16.612-14.714-35.611-27.158-56.472-36.985c-30.011-14.137-64.666-23.218-103.003-26.99l-0.451-0.044V62.543
				c0-8.177-1.662-16.068-4.94-23.454c-3.128-7.049-7.58-13.303-13.231-18.588C223.832,10.423,209.777,4.873,195.033,4.873z
				 M533.097,545.025H192.632c-8.712,0-15.8-7.088-15.8-15.801V382.196l0.653,0.211c5.691,1.833,11.595,2.763,17.548,2.763
				c14.745,0,28.8-5.552,39.577-15.633c5.648-5.281,10.099-11.534,13.229-18.584c3.278-7.389,4.94-15.279,4.94-23.453v-12.358
				l0.552,0.059c75.284,7.897,127.649,35.28,152.163,50.899c9.307,5.93,20.009,9.064,30.95,9.064
				c16.241,0,31.839-6.919,42.792-18.982c10.851-11.951,16.176-28.062,14.612-44.204c-3.165-32.692-13.304-81.042-43.629-125.727
				l-0.529-0.781h83.407c8.712,0,15.8,7.088,15.8,15.8v327.954C548.896,537.937,541.809,545.025,533.097,545.025z M177.832,383.565
				v145.659c0,8.161,6.639,14.801,14.8,14.801h340.465c8.161,0,14.8-6.64,14.8-14.801l0.001-327.954c0-8.161-6.64-14.8-14.8-14.8
				h-81.522c30.034,44.641,40.111,92.793,43.27,125.412c1.59,16.421-3.829,32.812-14.868,44.972
				c-11.143,12.272-27.009,19.311-43.532,19.311c-11.132,0-22.021-3.188-31.487-9.221c-24.38-15.534-76.393-42.739-151.178-50.69
				V327.5c0,8.314-1.691,16.342-5.026,23.859c-3.185,7.173-7.713,13.534-13.459,18.908c-10.963,10.255-25.261,15.902-40.26,15.902
				C189.204,386.169,183.42,385.293,177.832,383.565z M195.033,343.328c-4.098,0-7.864-1.55-10.891-4.482L47.645,206.571
				c-3.095-2.999-4.801-7.024-4.805-11.334c-0.003-4.31,1.697-8.337,4.788-11.341L184.125,51.213
				c3.029-2.945,6.801-4.501,10.907-4.501c9.956,0,15.906,8.049,15.906,15.831v42.265c0,8.015,6.268,14.511,14.269,14.788
				c41.721,1.445,78.56,9.21,109.493,23.08c23.799,10.669,44.48,25.121,61.472,42.952c39.934,41.907,52.513,94.035,56.033,130.386
				c0.434,4.485-0.968,8.763-3.947,12.044c-3.039,3.348-7.345,5.268-11.813,5.268c-2.96,0-5.888-0.868-8.467-2.51
				c-32.523-20.723-101.978-55.997-201.72-59.405c-0.171-0.005-0.344-0.008-0.516-0.008c-8.162,0-14.803,6.641-14.803,14.803v41.294
				C210.938,335.279,204.989,343.328,195.033,343.328z M195.032,47.712c-3.84,0-7.371,1.458-10.209,4.218L48.325,184.612
				c-2.895,2.814-4.488,6.587-4.485,10.624s1.602,7.808,4.5,10.617l136.498,132.273c2.836,2.748,6.361,4.201,10.194,4.201
				c9.33,0,14.905-7.54,14.905-14.83v-41.294c0-8.896,7.39-16.103,16.352-15.793c99.98,3.416,169.614,38.783,202.224,59.561
				c2.418,1.54,5.16,2.354,7.93,2.354c4.188,0,8.224-1.801,11.073-4.939c2.787-3.07,4.099-7.075,3.691-11.276
				c-3.505-36.193-16.023-88.091-55.762-129.792c-16.9-17.736-37.477-32.112-61.155-42.729
				c-30.815-13.816-67.528-21.552-109.119-22.993c-8.543-0.295-15.234-7.229-15.234-15.787V62.542
				C209.938,55.252,204.362,47.712,195.032,47.712z"/>
		</g>
	</g>
</g>
<g>
</g>
<g>
</g>
<g>
</g>
<g>
</g>
<g>
</g>
<g>
</g>
<g>
</g>
<g>
</g>
<g>
</g>
<g>
</g>
<g>
</g>
<g>
</g>
<g>
</g>
<g>
</g>
<g>
</g>
</svg>
