<svg height="496pt" viewBox="-64 0 496 496" width="496pt" xmlns="http://www.w3.org/2000/svg"><path d="m344 96h-24.640625c-3.902344-27.097656-27.207031-48-55.359375-48h-10.230469l-10.53125-31.59375c-3.269531-9.8125-12.421875-16.40625-22.765625-16.40625h-72.9375c-10.34375 0-19.496094 6.59375-22.765625 16.40625l-10.539062 31.59375h-10.230469c-28.152344 0-51.457031 20.902344-55.359375 48h-24.640625c-13.230469 0-24 10.769531-24 24v16c0 13.230469 10.769531 24 24 24h8.800781l28.230469 268.183594c1.976562 18.785156 16.65625 33.160156 34.976562 35.359375v8.457031c0 13.230469 10.769532 24 24 24h128c13.230469 0 24-10.769531 24-24v-8.449219c18.3125-2.207031 32.992188-16.582031 34.976563-35.359375l28.214844-268.191406h8.800781c13.230469 0 24-10.769531 24-24v-16c0-13.230469-10.769531-24-24-24zm-240-32h21.769531l14.175781-42.527344c1.085938-3.273437 4.132813-5.472656 7.582032-5.472656h72.9375c3.445312 0 6.496094 2.199219 7.589844 5.472656l14.175781 42.527344h21.769531c19.3125 0 35.472656 13.769531 39.191406 32h-238.382812c3.71875-18.230469 19.878906-32 39.191406-32zm144 416h-128c-4.40625 0-8-3.585938-8-8v-8h144v8c0 4.414062-3.59375 8-8 8zm19.191406-32h-166.382812c-12.320313 0-22.578125-9.230469-23.863282-21.488281l-1.113281-10.511719h216.328125l-1.105468 10.511719c-1.285157 12.257812-11.550782 21.488281-23.863282 21.488281zm26.65625-48h-219.695312l-20.207032-192h260.117188zm21.894532-208h-263.484376l-3.371093-32h270.226562zm36.257812-56c0 4.40625-3.59375 8-8 8h-320c-4.40625 0-8-3.59375-8-8v-16c0-4.40625 3.59375-8 8-8h320c4.40625 0 8 3.59375 8 8zm0 0"/><path d="m120 224c-13.230469 0-24 10.769531-24 24v112c0 13.230469 10.769531 24 24 24s24-10.769531 24-24v-112c0-13.230469-10.769531-24-24-24zm8 136c0 4.414062-3.59375 8-8 8s-8-3.585938-8-8v-112c0-4.40625 3.59375-8 8-8s8 3.59375 8 8zm0 0"/><path d="m184 224c-13.230469 0-24 10.769531-24 24v112c0 13.230469 10.769531 24 24 24s24-10.769531 24-24v-112c0-13.230469-10.769531-24-24-24zm8 136c0 4.414062-3.59375 8-8 8s-8-3.585938-8-8v-112c0-4.40625 3.59375-8 8-8s8 3.59375 8 8zm0 0"/><path d="m248 224c-13.230469 0-24 10.769531-24 24v112c0 13.230469 10.769531 24 24 24s24-10.769531 24-24v-112c0-13.230469-10.769531-24-24-24zm8 136c0 4.414062-3.59375 8-8 8s-8-3.585938-8-8v-112c0-4.40625 3.59375-8 8-8s8 3.59375 8 8zm0 0"/></svg>